<?xml version="1.0" encoding="utf-8"?>
<!-- Generator: Adobe Illustrator 27.5.0, SVG Export Plug-In . SVG Version: 6.00 Build 0)  -->
<svg version="1.1" xmlns="http://www.w3.org/2000/svg" xmlns:xlink="http://www.w3.org/1999/xlink" x="0px" y="0px"
	 viewBox="0 0 600 500" style="enable-background:new 0 0 600 500;" xml:space="preserve">
<g id="BACKGROUND">
	<rect style="fill:#FFFFFF;" width="600" height="500"/>
	<path style="fill:#F0ECD8;" d="M484.232,215.723c17.519-19.699,28.167-45.644,28.167-74.081
		c0-61.595-49.932-111.527-111.527-111.527c-42.186,0-78.897,23.425-97.847,57.974c-26.075-25.346-61.334-40.901-100.148-40.901
		c-80.301,0-145.398,66.576-145.398,148.702c0,41.162,16.355,78.415,42.778,105.34c-8.893,17.053-13.927,36.438-13.927,57.001
		c0,16.29,3.165,31.838,8.898,46.076h175.469c16.181,21.567,38.308,38.418,63.961,48.094h100.849
		c54.047-20.385,92.493-72.577,92.493-133.757C528.001,278.22,511.212,241.72,484.232,215.723z"/>
</g>
<g id="OBJECTS">
	<g>
		<path style="fill:#E84B4B;" d="M246.08,42.547c-30.726,0-55.634,11.55-55.634,25.798c0,12.159,18.144,22.346,42.558,25.074
			c-1.274-0.142-3.424,12.694-3.543,14.241c-0.446,5.767,0.001,11.601,1.334,17.231c0.365,1.542,0.879,3.192,2.173,4.108
			c0.118-10.153,2.004-20.926,7.367-29.678c1.183-1.93,2.608-3.629,4.164-5.196c0.527,0.007,1.051,0.018,1.581,0.018
			c30.726,0,55.634-11.55,55.634-25.798S276.806,42.547,246.08,42.547z"/>
		<path d="M234.47,74.751c-0.218,0-0.441-0.021-0.667-0.065c-1.079-0.21-2.063-0.884-2.633-1.802
			c-0.833-1.341-1.004-3.106-0.51-5.246c0.623-2.695,2.05-5.186,4.006-7.144c-0.129-0.105-0.264-0.207-0.404-0.304
			c-2.945-2.03-6.184-2.123-9.121-0.264c-3.838,2.432-6.177,7.654-5.44,12.149l-0.987,0.161c-0.81-4.946,1.668-10.479,5.893-13.155
			c3.296-2.089,6.928-1.988,10.224,0.286c0.201,0.138,0.392,0.285,0.572,0.438c1.137-0.997,2.422-1.821,3.81-2.421
			c4.236-1.83,9.343-1.521,13.328,0.805c0.75,0.438,1.378,0.899,1.895,1.394c2.045-1.214,4.314-2.021,6.396-2.195
			c1.047-0.089,1.883-0.035,2.625,0.167c0.746,0.204,1.503,0.59,2.314,1.182c3.405,2.482,5.337,6.795,4.923,10.988l-0.995-0.099
			c0.38-3.847-1.393-7.805-4.517-10.082c-0.712-0.519-1.362-0.854-1.988-1.025c-0.627-0.171-1.352-0.213-2.279-0.136
			c-1.884,0.158-3.933,0.873-5.799,1.952c0.103,0.133,0.199,0.269,0.289,0.407c1.113,1.715,1.23,3.881,1.325,5.621
			c0.082,1.504,0.175,3.209-0.325,4.797c-0.573,1.819-1.952,3.186-3.512,3.481c-1.008,0.192-2.078-0.07-3.004-0.735
			c-1.127-0.811-1.912-2.101-2.099-3.452c-0.334-2.412,0.441-4.876,2.241-7.125c0.954-1.192,2.175-2.281,3.53-3.193
			c-0.424-0.378-0.93-0.737-1.524-1.084c-3.716-2.168-8.476-2.456-12.427-0.75c-1.269,0.548-2.445,1.298-3.49,2.203
			c2.554,2.865,2.573,7.46,1.689,10.848c-0.268,1.025-0.667,2.166-1.608,2.853C235.708,74.564,235.109,74.751,234.47,74.751z
			 M235.386,61.185c-1.832,1.828-3.169,4.157-3.751,6.678c-0.433,1.873-0.304,3.385,0.385,4.493
			c0.419,0.676,1.176,1.192,1.975,1.348c0.431,0.083,1.062,0.099,1.616-0.307c0.687-0.501,1.007-1.443,1.23-2.297
			C237.655,67.976,237.667,63.758,235.386,61.185z M254.259,60.865c-1.324,0.874-2.52,1.929-3.448,3.089
			c-1.624,2.029-2.326,4.229-2.031,6.363c0.148,1.069,0.796,2.133,1.692,2.777c0.496,0.357,1.288,0.746,2.235,0.565
			c1.203-0.228,2.28-1.327,2.744-2.799c0.446-1.414,0.362-2.953,0.281-4.441c-0.093-1.706-0.198-3.64-1.166-5.131
			C254.472,61.144,254.37,61.003,254.259,60.865z"/>
	</g>
	<path style="fill:#DEDEDE;" d="M39.713,459.007"/>
	<g>
		<path style="fill:#215969;" d="M514.402,156.433h20.225c3.873,0,7.013-3.14,7.013-7.013v-27.034h-27.238V156.433z"/>
		<g>
			<rect x="478.711" y="103.322" style="fill:#215969;" width="36.287" height="20.883"/>
			<path style="fill:#215969;" d="M494.819,175.107h-43.824c-3.705,0-6.708-3.003-6.708-6.708v-55.105
				c0-3.705,3.003-6.708,6.708-6.708h54.185v58.162C505.179,170.468,500.541,175.107,494.819,175.107z"/>
			<path style="fill:#348193;" d="M493.277,175.13h-99.5c-7.52,0-13.616-6.096-13.616-13.616V79.842H483.09l0.32,83.584
				C483.197,174.495,493.277,175.13,493.277,175.13z"/>
			<g>
				<g>
					<rect x="384.033" y="82.602" width="12.902" height="11.42"/>
					<rect x="384.033" y="98.264" width="12.902" height="11.42"/>
					<rect x="384.033" y="113.926" width="12.902" height="11.42"/>
					<rect x="384.033" y="129.589" width="12.902" height="11.42"/>
					<rect x="384.033" y="145.251" width="12.902" height="11.42"/>
					<path d="M395.965,172.333h0.971v-11.42h-12.902v1.731C384.186,168.205,392.672,173.023,395.965,172.333z"/>
				</g>
				<g>
					<rect x="466.315" y="82.602" width="12.902" height="11.42"/>
					<rect x="466.315" y="98.264" width="12.902" height="11.42"/>
					<rect x="466.315" y="113.926" width="12.902" height="11.42"/>
					<rect x="466.315" y="129.589" width="12.902" height="11.42"/>
					<rect x="466.315" y="145.251" width="12.902" height="11.42"/>
					<rect x="466.315" y="160.913" width="12.902" height="11.42"/>
				</g>
			</g>
			<rect x="402.194" y="82.602" style="fill:#64B0CA;" width="58.733" height="89.079"/>
			<path d="M524.229,156.537v-43.671c0-5.271-4.273-9.544-9.544-9.544c-5.271,0-9.544,4.273-9.544,9.544v43.671H524.229z"/>
		</g>
		<path d="M524.313,126.354v20.638c0,5.271,4.273,9.544,9.544,9.544h-23.25"/>
	</g>
	<g>
		<path style="fill:#E79979;" d="M147.454,304.39c-10.949,30.912-14.437,63.894-17.511,96.543
			c22.22,3.413,41.693,8.579,63.493,14.068c5.686-26.204,13.58-51.928,23.57-76.811c6.368-15.861,13.685-31.527,23.583-45.526
			c10.647-15.059,23.13-24.185,10.434-43.397c-5.253-7.95-12.977-13.883-20.554-19.661c-16.694-12.73-37.898,6.031-49.259,17.934
			C165.871,263.611,154.84,283.538,147.454,304.39z"/>
		<path style="fill:#FFFFFF;" d="M345.413,272.22c-0.144-20.219-9.27-40.489-3.182-60.636h-49.169
			c-0.199,5.574-0.617,11.145-1.854,16.72c-0.146,0.657-1.516,0.923-2.833,0.864c-4.888,68.649,1.905,137.373-1.761,206.04h60.783
			c0.785-31.452,1.754-62.885,0.161-94.386C346.402,317.953,345.576,295.092,345.413,272.22z"/>
		<path style="fill:#E84B4B;" d="M409.881,306.895c-0.4-2.102-0.811-4.202-1.232-6.3c-6.06-30.187-10.001-76.523-40.562-92.947
			c-10.341-5.557-24.567-7.162-38.303-7.812c0.047,2.08,11.768,11.847,11.762,13.93c0.528,0.286-6.141,13.656-6.5,15.277
			c-3.644,16.455-3.09,28.322-1.846,46.686c1.392,20.54,0.613,41.167,1.067,61.748c0.684,30.981-0.039,61.589-0.069,92.375
			c0,0.493,0.017,1.036,0.349,1.402c0.281,0.309,0.718,0.412,1.128,0.496c14.03,2.908,28.435,3.985,42.742,3.218
			c6.159-0.33,12.734-2.497,18.736-2.496c5.568,0.001,10.847,1.951,16.565,1.583c2.568-0.166,5.479-0.779,6.753-3.014
			c0.725-1.273,0.748-2.812,0.748-4.276C421.21,386.571,417.398,346.38,409.881,306.895z"/>
		<path style="fill:#E84B4B;" d="M300.674,340.415c0.023-38.646-9.804-78.643-7.184-117.301c-0.098-2.649,9.24-4.527,9.272-7.182
			c-0.241-0.188-0.41-0.475-0.405-0.899c0.078-5.397,0.109-10.798,0.146-16.197c0.007-1.003-19.426-0.054-21.359,0.32
			c-6.803,1.316-13.422,4.48-18.285,9.536c-8.95,9.306-23.171,21.448-28.86,33.128c-2.727,5.598-3.479,11.922-4.184,18.109
			c-6.318,55.476-11.929,111.033-16.83,166.652c-0.151,1.711-0.187,3.715,1.137,4.811c3.759,3.11,25.383,2.991,31.184,3.631
			c8.452,0.933,17.073,1.772,25.583,1.894c6.9,0.099,13.802-0.186,20.671-0.846c2.828-0.271,5.439,0.036,6.945-2.124
			c1.008-1.446,1.185-5.821,1.379-7.605C302.955,398.044,300.656,368.842,300.674,340.415z"/>
		<path style="fill:#E79979;" d="M343.261,199.704c-3.041-2.128-5.445-5.379-6.969-8.772c-3.856-8.587-3.167-24.659-1.328-33.566
			c1.853-8.973,3.791-9.225,0.573-17.978c-2.819-7.665-7.649-14.647-14.124-19.803c-8.634-6.875-22.847-3.24-33.231-2.055
			c-1.517,9.574-2.331,19.259-2.435,28.952c-0.115,10.64,2.462,18.749,10.585,25.619c1.631,1.38,1.504,2.009,1.479,4.296
			c-0.058,5.181-0.367,10.364-0.877,15.521c-0.54,5.459-8.585,5.291-12.962,5.9c-0.715,0.1-1.451,0.217-2.061,0.594
			c-3.487,2.161,11.568,21.409,14.363,23.768c6.027,5.085,14.454,7.553,22.854,6.692c7.319-0.75,14.118-4.251,19.425-9.157
			c2.534-2.343,5.663-5.167,7.235-8.263c1.572-3.096,2.202-6.33,4.361-9.278C347.616,202.051,345.296,201.129,343.261,199.704z"/>
		<path style="fill:#E84B4B;" d="M284.218,206.077c-1.193-1.855-2.637-3.302-4.371-4.164c-2.874-1.43-6.216-1.495-9.425-1.427
			c-55.955,1.182-110.97,50.689-130.479,103.126c2.426,1.87,4.998,3.495,7.685,4.92c2.24,0.708,4.509,1.327,6.791,1.889
			c9.389,2.314,19.013,3.694,28.6,4.885c9.656,1.2,19.348,2.102,29.049,2.832c7.848,0.591,15.706,1.066,23.568,1.429
			c6.15-15.378,14.282-29.906,24.115-43.234c8.57-11.616,24.05-18.918,28.014-33.627
			C289.843,234.999,290.205,215.39,284.218,206.077z"/>
		<path d="M344.741,139.018c-0.976,4.627-2.37,13.057-9.114,11.433c-2.955-0.712-5.476-2.48-6.636-5.387
			c-0.658-1.651-0.799-3.452-1.034-5.214c-0.337-2.528-0.88-5.024-1.422-7.516c-0.378-1.739-1.314-2.339-3.018-2.698
			c-7.757-1.632-15.705-2.346-23.628-2.131c-4.833,0.131-9.583,1.09-14.382,1.58c-3.449,0.352-8.724,1.094-10.451-2.976
			c-0.583-1.375-0.273-3.007,0.496-4.287c0.77-1.28,1.947-2.261,3.162-3.129c5.063-3.617,11.217-5.685,17.436-5.862
			c-1.811-0.965-3.677-2.035-4.78-3.765c-1.083-1.698-1.122-3.893,0.207-5.137c0.305-0.286,0.683-0.522,1.137-0.69
			c5.515-2.041,11.666-0.85,17.323,0.755c6.689,1.898,13.221,4.347,19.51,7.313c4.859,2.292,12.493,5.826,14.933,11.017
			C346.649,126.939,345.764,134.171,344.741,139.018z"/>
		<path style="fill:#E79979;" d="M330.293,134.361c-2.736,0.047-4.711,1.29-6.071,3.144c0.407,1.183,1.004,2.324,1.538,3.446
			c0.647,1.357,1.191,2.677,1.666,4.1c0.875,2.617,1.482,5.39,1.812,8.157c0.029,0,0.056,0.003,0.085,0.003
			c5.525-0.094,9.857-4.713,10.352-9.755C340.182,138.298,335.447,134.273,330.293,134.361z"/>
		<path d="M328.285,140.605c1.197-0.711,2.754-0.304,3.681,0.569c1.07,1.008,1.513,2.591,1.141,4.072
			c-0.373,1.482-1.55,2.818-3.03,3.438"/>
		<path style="fill:none;stroke:#000000;stroke-width:0.5;stroke-miterlimit:10;" d="M391.209,281.504"/>
		<path style="fill:none;stroke:#000000;stroke-width:0.5;stroke-miterlimit:10;" d="M405.714,306.918"/>
		<path d="M303.578,174.119c-2.612,0.27-5.319-0.556-7.336-2.237l0.007,0.091c1.263,1.265,1.529,3.303,1.492,5.13
			c-0.028,1.383-0.252,2.743-0.411,4.11c5.843-0.87,11.103-5.175,12.973-10.784C308.671,172.487,306.19,173.849,303.578,174.119z"/>
		<path style="fill:#993131;" d="M284.939,242.225c0,0,9.082,20.023,8.975,18.632c-0.107-1.392,5.529-26.621,5.529-26.621
			L284.939,242.225z"/>
		<path style="fill:#E79979;" d="M478.095,305.944c10.949,30.912,14.437,63.894,17.511,96.543
			c-22.22,3.413-41.693,8.579-63.493,14.068c-5.686-26.204-13.58-51.928-23.57-76.811c-6.368-15.86-13.685-31.527-23.583-45.526
			c-10.647-15.059-23.13-24.185-10.434-43.397c5.253-7.95,12.977-13.883,20.554-19.661c16.694-12.73,37.898,6.031,49.259,17.934
			C459.678,265.164,470.709,285.091,478.095,305.944z"/>
		<path style="fill:#E84B4B;" d="M341.331,207.632c1.193-1.855,2.637-3.302,4.371-4.164c2.874-1.43,6.216-1.495,9.425-1.428
			c55.955,1.182,110.543,50.171,130.052,102.608c-24.774,19.101-67.338,29.007-94.273,26.935
			c-6.253-16.313-14.741-39.642-25.109-53.696c-8.569-11.616-24.05-18.918-28.014-33.627
			C335.706,236.553,335.345,216.944,341.331,207.632z"/>
		<path style="fill:#E8CB61;" d="M403.367,332.208c-3.767-17.081-10.674-36.875-16.852-54.088l0.941-0.338
			c6.189,17.242,13.108,37.072,16.888,54.211L403.367,332.208z"/>
		<polygon style="fill:#993131;" points="345.106,247.577 332.088,256.677 330.52,230.477 		"/>
		<path d="M347.853,227.837c0.676-5.587,1.659-11.151,2.105-16.763c0.273-3.43,0.402-6.928,1.26-10.255
			c-3.054-0.23-6.021-1.388-8.525-3.197c-0.841,1.467-1.425,3.223-2.057,4.582c-4.122,8.865-7.457,18.096-9.949,27.549
			c-0.063,0.238-0.12,0.48-0.168,0.723c3.557,3.775,6.544,8.079,9.578,12.273c1.668,2.305,3.47,4.503,5.279,6.695
			C346.037,242.221,346.985,235.014,347.853,227.837z"/>
		<path d="M295.709,223.861c-1.597-4.856-3.336-9.666-5.213-14.421c-1.492-3.731-2.097-8.841-3.994-12.596
			c-1.733,0.144-3.359,0.491-5.209,0.692c-1.376,0.149-2.724,0.105-4.041-0.136c-0.312,2.051-0.17,4.304-0.083,5.73
			c0.326,5.324,1.107,10.646,1.868,15.922c1.438,9.972,3.201,19.899,4.381,29.906c5.294-4.96,10.55-9.962,16.025-14.722
			C298.319,230.434,296.117,225.102,295.709,223.861z"/>
		<path style="fill:#FFFFFF;" d="M291.073,156.486c2.079,2.891,5.925,4.389,9.411,3.666c3.486-0.723,6.42-3.627,7.178-7.105"/>
		<path d="M320.177,157.78c-2.282,0-4.559-0.207-6.783-0.625l0.185-0.982c6.603,1.242,13.679,0.569,19.927-1.895l0.367,0.931
			C329.557,156.91,324.855,157.78,320.177,157.78z"/>
		<path style="fill:#E8CB61;" d="M343.133,134.642c1.242-8.961,0.091-17.704-6.091-25.411c-2.672-3.331-5.477-5.782-9.697-6.878
			c-5.765-1.498-11.784-2.009-17.719-1.504c-0.784,0.067-1.604,0.164-2.257,0.611c-1.415,0.973-0.948,2.814,0.656,3.172
			c8.603,1.92,16.937,2.839,22.643,10.49c4.42,5.927,5.143,12.558,4.564,19.345c-5.346,1.7-9.247,6.977-9.247,13.232
			c0,7.629,5.798,13.813,12.95,13.813c7.152,0,12.95-6.184,12.95-13.813C351.885,141.639,348.222,136.503,343.133,134.642z"/>
		<ellipse cx="338.935" cy="147.698" rx="8.316" ry="8.87"/>
		<path d="M330.77,117.14c-0.175-1.624-1.38-2.925-2.562-4.052c-7.565-7.212-17.395-12.741-27.846-12.62
			c-2.617,0.03-5.25,0.42-7.689,1.371c-1.874,0.731-3.834,2.131-3.898,4.142c-0.05,1.574,1.096,2.917,2.27,3.967
			c1.293,1.156,2.707,2.177,4.213,3.038"/>
		<path style="fill:#E8CB61;" d="M224.258,327.786l-0.977-0.215c2.264-10.266,7.151-19.939,11.878-29.295
			c3.309-6.55,6.73-13.322,9.204-20.215l0.941,0.338c-2.495,6.95-5.93,13.751-9.253,20.327
			C231.354,308.027,226.495,317.645,224.258,327.786z"/>
		<path d="M319.361,157.183c0,2.915-2.363,5.277-5.277,5.277c-2.915,0-5.277-2.363-5.277-5.277c0-2.915,2.363-5.277,5.277-5.277
			C316.998,151.906,319.361,154.268,319.361,157.183z"/>
	</g>
	<rect x="31.425" y="401.792" style="fill:#FFFFFF;" width="529.053" height="73.79"/>
	<path style="fill:#F0ECD8;" d="M564.405,420.676c-1.153-11.018-10.469-19.607-21.792-19.607H57.387
		c-11.323,0-20.639,8.589-21.792,19.607H564.405z"/>
	<g>
		<path style="fill:#FFFFFF;" d="M251.887,400.992H88.427c-1.69,0-3.059-1.37-3.059-3.059l0,0c0-1.69,1.37-3.059,3.059-3.059h163.46
			c1.69,0,3.059,1.37,3.059,3.059l0,0C254.947,399.623,253.577,400.992,251.887,400.992z"/>
		<polygon style="fill:#E8CB61;" points="225.518,400.992 82.162,400.992 60.671,318.115 204.027,318.115 		"/>
		<path style="fill:#FFFFFF;" d="M149.933,356.016c0.686,4.816-2.507,8.721-7.132,8.721c-4.625,0-8.93-3.905-9.616-8.721
			c-0.686-4.816,2.507-8.721,7.132-8.721C144.942,347.295,149.247,351.199,149.933,356.016z"/>
	</g>
	<g>
		<path style="fill:#35A4B0;" d="M395.691,220.685c0.514,0.621-0.129,1.472-0.845,1.395c-4.742-0.513-9.109-2.141-13.375-4.074
			c5.568,26.593,18.419,51.626,36.817,71.621c2.374,2.581,7.794,3.398,8.221-1.461c-0.005,1.874,2.162,3.235,3.994,2.844
			c1.832-0.391,3.171-2.068,3.707-3.864c2.235-7.484,0.182-18.433-0.782-26.02c-1.223-9.622-3.449-19.139-6.841-28.232
			c-5.27-14.127-13.314-26.997-24.579-36.592c-0.688-0.586-1.354-1.096-2.008-1.57c-0.308,2.607-0.781,5.206-2.446,7.291
			c-0.182,0.228-0.577,0.337-0.853,0.249c-0.747-0.239-0.917-0.791-1.099-1.508c-0.15-0.593-0.226-1.201-0.238-1.813
			c-0.023-1.152,0.178-2.279,0.439-3.396c0.227-0.973,0.511-1.946,0.732-2.928c-11.594-5.514-16.811,7.907-15.885,20.074
			c1.825,0.523,3.629,1.112,5.393,1.807C389.574,215.9,393.227,217.711,395.691,220.685z M414.066,241.441
			c0.248-2.604,1.069-5.231,2.802-7.19c0.598-0.676,1.322-1.277,2.186-1.539c0.864-0.262,1.886-0.13,2.533,0.5
			c1.221,1.188-0.254,4.729-0.615,6.153c-0.509,2.01-3.038,10.979-6.311,5.822C413.971,244.098,413.944,242.723,414.066,241.441z
			 M404.596,215.309c0.092-1.96,0.387-3.909,0.872-5.81c0.197-0.77,0.475-1.601,1.153-2.016c2.281-1.395,1.66,2.987,1.615,3.953
			c-0.106,2.276-0.531,4.626-2.171,6.329c-0.758,0.788-1.131,0.242-1.311-0.538C404.583,216.488,404.586,215.537,404.596,215.309z
			 M402.603,236.839c0.266,0.136,0.457,0.363,0.53,0.629c0.209,0.15,0.437,0.274,0.639,0.433c0.552,0.433,0.308,1.569-0.47,1.557
			c-3.662-0.055-7.292-1.393-9.923-3.981c-0.242-0.238-0.237-0.696-0.085-0.968c0.188-0.336,0.493-0.459,0.865-0.464
			c0.105-0.001,0.209,0.013,0.314,0.016c0.064-0.005,0.124-0.019,0.193-0.009c0.039,0.006,0.076,0.018,0.114,0.024
			C397.534,234.234,400.205,235.616,402.603,236.839z"/>
		<path style="fill:#E8CB61;" d="M433.821,306.412c0.252,2.136,1.576,4.28,3.642,4.88c4.512,1.307,0.067,3.565,3.01,6.164
			c1.317,1.163,3.288,1.324,4.98,0.853c1.692-0.471,3.173-1.484,4.619-2.481c2.749-1.894,5.699-3.502,8.522-5.267
			c-0.3,0.187-2.066-0.464-2.383-0.555c-0.86-0.247-5.017-1.623-3.003-3.063c0.501-0.358,1.166-0.358,1.781-0.327
			c1.455,0.075,2.905,0.251,4.336,0.525c0.191,0.037,2.913,0.916,2.884,0.939c0.198-0.151,0.413-0.281,0.608-0.436
			c9.94-7.952,21.291-18.758,27.012-30.26c3.225-6.483,4.959-14.585,1.163-20.751c-2.071-3.364-5.474-5.467-9.295-6.393
			c-11.413-2.767-20.03,4.684-26.104,13.385c-8.031,11.506-16.161,23.206-20.71,36.479
			C434.187,302.138,433.57,304.275,433.821,306.412z M468.459,263.53c0.304,3.068-0.12,6.212-1.27,9.076
			c-0.22,0.549-0.575,1.168-1.165,1.207c-0.66,0.044-1.095-0.656-1.365-1.26c-1.051-2.352-2.984-5.661-2.901-8.296
			c0.062-1.949,1.641-4.717,3.019-6.004c0.635-0.593,1.174-0.639,1.628-0.355C467.794,258.767,468.379,262.732,468.459,263.53z
			 M480.049,264.496c-0.491,0.01-0.938-0.277-1.141-0.719c-0.185-0.403-0.164-1.028,0.202-1.343c1.539-1.324,3.724-1.9,5.741-1.901
			c0.311,0,0.633,0.017,0.912,0.156c0.279,0.139,0.503,0.43,0.474,0.74c-0.033,0.354-0.361,0.597-0.659,0.791
			c-0.726,0.475-1.474,0.959-2.257,1.357C482.3,264.098,481.219,264.474,480.049,264.496z M470.941,276.675
			c-2.107-1.402,1.216-2.647,2.255-2.83c0.989-0.174,1.987-0.299,2.989-0.373c1.058-0.078,2.148-0.096,3.148,0.257
			c0.329,0.116,0.656,0.281,0.864,0.56c0.209,0.279,0.266,0.694,0.055,0.972c-0.08,0.105-0.191,0.183-0.302,0.256
			c-0.592,0.389-1.393,0.772-2.289,1.086C475.408,277.393,472.557,277.75,470.941,276.675z M459.096,289.767
			c2.044-2.091,4.727-3.548,7.531-4.337c2.616-0.736,5.539-0.915,8.07,0.218c0.998,0.447,1.085,1.681,0.158,2.26
			c-2.191,1.367-4.679,2.31-7.143,3.052c-2.343,0.706-4.93,1.364-7.384,0.94c-0.019-0.003-0.03-0.015-0.048-0.019
			c-0.455,0.133-1.016-0.036-1.312-0.38C458.503,290.962,458.631,290.243,459.096,289.767z M454.265,274.471
			c0.137-0.207,1.994,2.998,2.096,3.291c0.504,1.447,0.645,3.023,0.37,4.532c-0.088,0.485-0.351,1.072-0.844,1.056
			c-1.059-1.785-2.323-3.7-2.475-5.697C453.333,276.613,453.555,275.55,454.265,274.471z M436.711,303.137
			c-0.105-0.394-0.186-0.812-0.077-1.205c0.534-1.931,2.666-0.152,3.092,0.828c0.319,0.735,0.545,1.527,0.514,2.328
			c-0.031,0.801-0.345,1.613-0.958,2.13c-0.063,0.053-0.136,0.106-0.219,0.106c-0.11,0-0.197-0.09-0.268-0.174
			c-0.719-0.856-1.297-1.829-1.708-2.868C436.94,303.908,436.814,303.526,436.711,303.137z"/>
		<path style="fill:#E3AE3D;" d="M456.619,277.983c-0.013-0.063-0.027-0.125-0.041-0.188c0.011,0.053,0.021,0.107,0.032,0.16
			c-0.014-0.07-0.023-0.113-0.032-0.161c0,0,0,0.001,0,0.001c-0.01-0.051-0.02-0.101-0.031-0.152
			C456.572,277.757,456.596,277.87,456.619,277.983z"/>
		<path style="fill:#215969;" d="M358.559,269.191c-0.485,6.201,4.528,14.787,7.449,20.075c3.614,6.543,8.016,12.623,12.742,18.402
			c7.712,9.431,18.422,15.418,29.585,18.172c2.109,0.52,15.29,6.18,16.124,5.664c2.057-1.273-1.175-9.489-1.638-11.452
			c-1.933-8.181-5.178-18.137-11.254-24.223c-0.306,2.83-0.444,5.659-0.986,8.474c-0.132,0.687-0.593,1.57-1.256,1.346
			c-0.412-0.139-0.558-0.638-0.628-1.067c-0.309-1.871-0.325-3.788-0.063-5.666c0.234-1.678,1.427-3.617,1.452-5.228
			c0.042-2.675-3.601-5.819-5.311-7.726c-7.002-7.809-15.335-14.291-24.87-18.448c-0.181,2.395,0.097,4.925,0.178,7.342
			c0.02,0.596,0.028,1.237-0.304,1.732c-1.306,1.947-4.158-0.004-4.693-1.497c-0.386-1.079,0.631-10.116,0.512-10.168
			c-3.415-1.486-6.93-2.754-10.529-3.767c-1.926-0.542-4.199-0.953-5.761,0.298c-0.911,0.729-2.214,3.387-1.284,4.428
			c0.695,0.779,3.992,0.668,5.061,1.115c1.335,0.558,2.554,1.791,2.464,3.236c-0.01,0.155-0.04,0.32-0.151,0.428
			c-0.13,0.125-0.329,0.136-0.509,0.134c-1.168-0.009-2.261-0.443-3.327-0.858C360.55,269.545,359.563,269.17,358.559,269.191z
			 M388.816,310.151c0.216-1.778,6.084-1.527,7.44-1.127c2.349,0.694,4.477,2.022,6.323,3.631c0.482,0.42,0.989,1.068,0.686,1.631
			c-1.421-0.186-2.836-0.415-4.251-0.644c-1.007-0.163-5.046-0.339-7.732-1.217C389.77,311.931,388.686,311.214,388.816,310.151z
			 M388.601,279.666c0.623-0.419,1.476-0.013,2.004,0.519c2.253,2.273,1.719,5.867,1.47,8.751c0.178,0.427,0.184,2.016,0.093,2.9
			c-0.02,0.195-0.048,0.402-0.173,0.553c-0.387,0.468-1.124-0.027-1.478-0.521c-1.079-1.507-3.06-5.438-3.263-8.554
			C387.153,281.764,387.492,280.415,388.601,279.666z M368.632,287.191c-1.01-0.577-2.142-1.657-1.622-2.697
			c0.371-0.744,1.357-0.888,2.189-0.894c3.706-0.027,7.416,0.791,10.767,2.375c1.278,0.604,4.402,2.372,3.754,4.206
			c-0.544,1.537-3.72,1.389-4.91,1.252c-3.529-0.404-6.87-2.351-9.914-4.092C368.807,287.291,368.719,287.241,368.632,287.191z"/>
		<path style="fill:#1C0C03;" d="M428.693,354.513c-0.76-8.646-1.62-18.445-6.281-26.156c-2.827-4.678-6.863-8.257-10.768-11.719
			l-22.51-19.96l0.664-0.748l22.51,19.96c3.959,3.512,8.054,7.143,10.959,11.949c4.781,7.91,5.652,17.832,6.422,26.586
			L428.693,354.513z"/>
		<path style="fill:#1C0C03;" d="M433.12,370.399l-0.982-0.182c1.128-6.109,0.88-12.495,0.641-18.671
			c-0.168-4.31-0.341-8.765-0.053-13.13c1.269-19.223,11.146-36.012,20.304-50.239l0.842,0.541
			c-9.091,14.122-18.895,30.779-20.147,49.765c-0.285,4.313-0.113,8.741,0.054,13.024C434.02,357.737,434.27,364.181,433.12,370.399
			z"/>
		<path style="fill:#1C0C03;" d="M430.81,362.669l-0.51-34.607c-0.135-9.116-0.273-18.541-1.679-27.664
			c-2.721-17.668-20.82-63.266-27.24-77.615l0.912-0.408c6.436,14.383,24.581,60.111,27.316,77.871
			c1.416,9.191,1.556,18.652,1.69,27.801l0.51,34.607L430.81,362.669z"/>
		<g>
			<g>
				<path style="fill:#64B0CA;" d="M452.92,401.465c0,0-43.893-0.534-43.914-0.808l-3.053-46.386h50.618
					C456.572,354.27,452.929,401.374,452.92,401.465z"/>
				<path style="fill:#1C0C03;" d="M453.169,369.166c-9.831-4.202-19.75-8.155-29.758-11.591c-2.738-1.115-5.479-2.214-8.221-3.305
					h41.382l-1.413,15.765C454.495,369.749,453.833,369.451,453.169,369.166z"/>
				<path style="fill:#64B0CA;" d="M399.908,345.608h59.917c0.526,0,1.033,0.051,1.527,0.129v12.72
					c-0.497,0.08-1.005,0.132-1.527,0.132h-58.505L399.908,345.608z"/>
			</g>
		</g>
		<polygon style="fill:#1C0C03;" points="449.483,359.29 408.297,358.726 408.305,358.226 449.491,358.79 		"/>
	</g>
	<g>
		<g>
			<polygon style="fill:#595959;" points="534.266,89.166 532.266,89.166 532.266,51.835 491.575,51.835 491.575,49.835 
				534.266,49.835 			"/>
			<polygon style="fill:#595959;" points="534.266,380.237 491.575,380.237 491.575,378.237 532.266,378.237 532.266,340.906 
				534.266,340.906 			"/>
		</g>
		<g>
			<polygon style="fill:#595959;" points="112.575,89.166 110.575,89.166 110.575,49.835 153.266,49.835 153.266,51.835 
				112.575,51.835 			"/>
			<polygon style="fill:#595959;" points="153.266,380.237 110.575,380.237 110.575,340.906 112.575,340.906 112.575,378.237 
				153.266,378.237 			"/>
		</g>
	</g>
	<g>
		<polygon points="507.855,500.181 482.009,402.709 480.075,403.221 505.785,500.181 		"/>
		<polygon points="95.737,500.181 121.447,403.221 119.514,402.709 93.668,500.181 		"/>
		<rect x="31.18" y="400.792" width="537.641" height="2"/>
	</g>
	<g>
		<rect x="262.531" y="303.643" width="12.95" height="19.165"/>
		<circle cx="226.137" cy="300.494" r="31.152"/>
		<rect x="219.473" y="347.523" width="13.943" height="75.995"/>
		<path d="M240.334,353.847h-28.008c-0.795,0-1.439-0.644-1.439-1.439v-6.538c0-0.795,0.645-1.439,1.439-1.439h28.008
			c0.795,0,1.439,0.645,1.439,1.439v6.538C241.773,353.203,241.129,353.847,240.334,353.847z"/>
		<path style="fill:#5D8CA2;" d="M256.973,347.283H173.51c-2.461,0-4.456-1.995-4.456-4.456v-52.5c0-2.461,1.995-4.456,4.456-4.456
			h83.463c2.461,0,4.456,1.995,4.456,4.456v52.5C261.429,345.287,259.434,347.283,256.973,347.283z"/>
		<path style="fill:#64B0CA;" d="M264.225,347.283h-83.463c-2.461,0-4.456-1.995-4.456-4.456v-52.5c0-2.461,1.995-4.456,4.456-4.456
			h83.463c2.461,0,4.456,1.995,4.456,4.456v52.5C268.681,345.287,266.686,347.283,264.225,347.283z"/>
		<g>
			<circle style="fill:#5D8CA2;" cx="226.137" cy="313.509" r="18.386"/>
			<path d="M226.138,332.395c-10.414,0-18.886-8.472-18.886-18.886s8.472-18.886,18.886-18.886c10.414,0,18.886,8.472,18.886,18.886
				S236.551,332.395,226.138,332.395z M226.138,295.623c-9.862,0-17.886,8.023-17.886,17.886s8.024,17.886,17.886,17.886
				s17.886-8.023,17.886-17.886S236,295.623,226.138,295.623z"/>
		</g>
		<path d="M354.34,338.421l-74.983,0.616c-3.963,0.033-7.175-3.247-7.175-7.324v-36.713c0-4.078,3.212-7.41,7.175-7.443
			l74.983-0.616c3.963-0.033,7.175,3.247,7.175,7.325v36.713C361.514,335.056,358.302,338.388,354.34,338.421z"/>
		<polygon style="fill:#E8CB61;" points="354.496,335.702 279.2,336.199 279.2,290.275 354.496,289.778 		"/>
		<circle cx="226.137" cy="313.509" r="10.242"/>
		<path style="fill:#FFFFFF;" d="M223.369,308.101c0,1.71-1.386,3.096-3.096,3.096c-1.71,0-3.096-1.386-3.096-3.096
			c0-1.71,1.386-3.096,3.096-3.096C221.983,305.005,223.369,306.391,223.369,308.101z"/>
		<g>
			
				<ellipse transform="matrix(0.2326 -0.9726 0.9726 0.2326 -259.7532 562.3753)" style="fill:#215969;" cx="226.482" cy="445.785" rx="8.074" ry="8.074"/>
			<circle style="fill:#215969;" cx="226.771" cy="430.578" r="8.074"/>
			
				<ellipse transform="matrix(0.2326 -0.9726 0.9726 0.2326 -275.4579 574.7672)" style="fill:#215969;" cx="226.482" cy="461.932" rx="8.074" ry="8.074"/>
			<circle style="fill:#215969;" cx="226.482" cy="478.08" r="8.074"/>
			<path style="fill:#215969;" d="M221.042,500.181h10.879c1.615-1.476,2.634-3.593,2.634-5.954c0-4.459-3.615-8.074-8.074-8.074
				c-4.459,0-8.074,3.615-8.074,8.074C218.408,496.588,219.428,498.705,221.042,500.181z"/>
		</g>
		<g>
			<path style="fill:#215969;" d="M250.178,427.149c1.585,4.168-0.508,8.831-4.675,10.417c-4.168,1.586-8.831-0.508-10.417-4.675
				c-1.585-4.168,0.508-8.831,4.675-10.417C243.929,420.888,248.592,422.981,250.178,427.149z"/>
			<path style="fill:#215969;" d="M257.256,441.255c1.585,4.168-0.508,8.831-4.675,10.417c-4.168,1.585-8.831-0.508-10.417-4.675
				c-1.585-4.168,0.508-8.831,4.675-10.417C251.006,434.994,255.67,437.088,257.256,441.255z"/>
			<path style="fill:#215969;" d="M264.808,452.898c1.586,4.168-0.508,8.831-4.675,10.417c-4.168,1.585-8.831-0.508-10.417-4.675
				c-1.585-4.168,0.508-8.831,4.675-10.417C258.559,446.637,263.223,448.73,264.808,452.898z"/>
			<path style="fill:#215969;" d="M270.852,466.629c1.585,4.168-0.508,8.831-4.675,10.417c-4.168,1.586-8.831-0.508-10.417-4.675
				c-1.585-4.168,0.508-8.831,4.675-10.417C264.603,460.368,269.266,462.461,270.852,466.629z"/>
			<path style="fill:#215969;" d="M275.65,481.85c1.585,4.168-0.508,8.831-4.675,10.417c-4.168,1.585-8.831-0.508-10.417-4.676
				c-1.585-4.168,0.508-8.831,4.675-10.417C269.401,475.589,274.065,477.683,275.65,481.85z"/>
			<path style="fill:#215969;" d="M283.109,500.181c0.23-1.367,0.118-2.81-0.41-4.199c-1.585-4.168-6.249-6.261-10.417-4.675
				c-3.659,1.392-5.717,5.156-5.093,8.875H283.109z"/>
		</g>
		<g>
			<path style="fill:#215969;" d="M186.544,500.181c-0.469-2.72-2.313-5.132-5.08-6.184c-4.168-1.585-8.831,0.508-10.417,4.676
				c-0.189,0.498-0.323,1.003-0.41,1.509H186.544z"/>
			<path style="fill:#215969;" d="M192.605,491.525c1.585-4.168-0.508-8.831-4.675-10.417c-4.168-1.585-8.831,0.508-10.417,4.675
				c-1.586,4.168,0.508,8.831,4.675,10.417C186.355,497.786,191.019,495.693,192.605,491.525z"/>
			<path style="fill:#215969;" d="M200.548,477.74c1.585-4.168-0.508-8.831-4.675-10.417c-4.168-1.585-8.831,0.508-10.417,4.676
				c-1.585,4.168,0.508,8.831,4.675,10.417C194.299,484.001,198.963,481.908,200.548,477.74z"/>
			<path style="fill:#215969;" d="M208.045,463.818c1.585-4.168-0.508-8.831-4.675-10.417c-4.168-1.586-8.831,0.508-10.417,4.675
				c-1.585,4.168,0.508,8.831,4.675,10.417C201.796,470.079,206.46,467.986,208.045,463.818z"/>
			<path style="fill:#215969;" d="M214.957,449.896c1.586-4.168-0.508-8.831-4.675-10.417c-4.168-1.585-8.831,0.508-10.417,4.675
				c-1.585,4.168,0.508,8.831,4.675,10.417C208.708,456.157,213.372,454.064,214.957,449.896z"/>
			<path style="fill:#215969;" d="M218.943,434.219c1.585-4.168-0.508-8.831-4.675-10.417c-4.168-1.585-8.831,0.508-10.417,4.675
				c-1.585,4.168,0.508,8.831,4.675,10.417C212.694,440.48,217.357,438.386,218.943,434.219z"/>
		</g>
		<path d="M252.612,423.47c0.076-0.175,0.119-0.368,0.119-0.571v-4.954h-51.986v4.954c0,0.203,0.043,0.396,0.119,0.571H252.612z"/>
		<polygon points="290.818,304.408 289.818,304.408 289.818,295.13 303.192,295.13 303.192,296.13 290.818,296.13 		"/>
		<polygon points="303.192,332.413 289.818,332.413 289.818,321.339 290.818,321.339 290.818,331.413 303.192,331.413 		"/>
		<polygon points="344.657,332.413 330.575,332.413 330.575,331.413 343.657,331.413 343.657,320.753 344.657,320.753 		"/>
		<polygon points="344.657,304.993 343.657,304.993 343.657,296.13 331.323,296.13 331.323,295.13 344.657,295.13 		"/>
		<path style="fill:#E84B4B;" d="M340.21,304.946c0,3.3-2.6,5.997-5.807,6.023c-3.207,0.026-5.807-2.628-5.807-5.928
			s2.6-5.997,5.807-6.023C337.611,298.992,340.21,301.646,340.21,304.946z"/>
	</g>
	<path d="M186.005,230.521c-1.205,0-2.585-0.772-2.789-2.476l-9.353-78.46c-0.135-1.137-1.019-1.569-1.734-1.594
		c-0.716-0.03-1.626,0.347-1.839,1.473l-5.635,29.911c-0.233,1.237-1.192,2.128-2.443,2.271c-1.257,0.145-2.385-0.512-2.89-1.665
		c-0.36-0.823-1.101-1.111-1.706-1.083c-0.588,0.016-1.33,0.332-1.645,1.173l-2.792,7.446c-0.41,1.092-1.388,1.79-2.555,1.821
		c-1.168,0.038-2.182-0.613-2.648-1.682l-0.649-1.482c-0.364-0.832-1.128-1.105-1.725-1.083c-0.595,0.022-1.338,0.351-1.639,1.208
		l-4.954,14.1c-0.436,1.241-1.575,1.974-2.875,1.869c-1.311-0.105-2.308-1.01-2.54-2.304l-5.855-32.694
		c-0.185-1.029-1.011-1.444-1.664-1.486c-0.647-0.039-1.525,0.263-1.841,1.258l-4.056,12.792c-0.4,1.264-1.552,2.052-2.881,1.953
		c-1.322-0.096-2.354-1.04-2.568-2.349l-2.771-16.969c-0.173-1.061-1.018-1.479-1.689-1.515c-0.671-0.025-1.556,0.291-1.84,1.328
		l-6.046,22.023c-0.318,1.16-1.298,1.967-2.498,2.057c-1.193,0.095-2.289-0.561-2.777-1.66l-0.226-0.509
		c-0.405-0.912-1.247-1.145-1.89-1.059c-0.648,0.086-1.396,0.529-1.55,1.514L89.4,210.509c-0.256,1.641-1.578,2.375-2.775,2.375
		c0,0-0.001,0-0.001,0c-1.198-0.001-2.52-0.736-2.774-2.378l-4.564-29.46c-0.161-1.038-0.981-1.47-1.635-1.525
		c-0.654-0.06-1.535,0.234-1.868,1.23l-2.442,7.329c-0.412,1.235-1.565,2.013-2.861,1.913c-1.299-0.091-2.331-1.013-2.566-2.294
		l-10.12-55.1c-0.192-1.048-1.038-1.452-1.703-1.48c-0.662-0.02-1.541,0.305-1.821,1.331l-17.693,64.875l-0.965-0.263l17.693-64.875
		c0.407-1.494,1.715-2.121,2.828-2.067c1.114,0.047,2.364,0.776,2.644,2.299l10.12,55.1c0.187,1.018,1.007,1.432,1.653,1.478
		c0.644,0.034,1.515-0.251,1.843-1.232l2.442-7.329c0.417-1.254,1.576-2.025,2.9-1.91c1.317,0.111,2.337,1.063,2.54,2.369
		l4.564,29.46c0.175,1.13,1.072,1.531,1.787,1.532c0,0,0,0,0.001,0c0.714,0,1.61-0.4,1.787-1.529l4.041-25.861
		c0.197-1.261,1.142-2.184,2.407-2.351c1.265-0.166,2.417,0.478,2.935,1.644l0.226,0.509c0.381,0.858,1.171,1.117,1.789,1.069
		c0.614-0.046,1.359-0.418,1.608-1.325l6.046-22.023c0.414-1.507,1.732-2.109,2.857-2.062c1.124,0.06,2.371,0.81,2.623,2.352
		l2.771,16.969c0.169,1.04,0.997,1.465,1.654,1.512c0.65,0.051,1.537-0.253,1.855-1.257l4.056-12.792
		c0.397-1.254,1.557-2.049,2.858-1.954c1.313,0.085,2.352,1.012,2.584,2.307l5.855,32.694c0.182,1.013,0.995,1.433,1.636,1.484
		c0.639,0.053,1.51-0.232,1.851-1.203l4.954-14.1c0.391-1.113,1.366-1.832,2.545-1.876c1.188-0.046,2.206,0.601,2.678,1.681
		l0.649,1.483c0.36,0.823,1.144,1.108,1.706,1.083c0.589-0.016,1.33-0.333,1.645-1.173l2.792-7.447
		c0.41-1.092,1.389-1.79,2.555-1.821c1.156-0.045,2.18,0.613,2.648,1.682c0.394,0.901,1.218,1.146,1.861,1.072
		c0.641-0.073,1.391-0.495,1.574-1.462l5.635-29.911c0.308-1.636,1.651-2.345,2.855-2.287c1.199,0.041,2.497,0.821,2.694,2.475
		l9.353,78.46c0.132,1.11,0.983,1.628,1.809,1.594c0.805-0.006,1.669-0.509,1.786-1.621l4.64-44.335l0.994,0.104l-4.64,44.335
		c-0.18,1.716-1.563,2.507-2.773,2.516C186.019,230.521,186.012,230.521,186.005,230.521z"/>
	<circle style="fill:#E84B4B;" cx="514.187" cy="66.374" r="7.77"/>
</g>
</svg>
